<?xml version="1.0" encoding="UTF-8"?><svg id="uuid-89fef0a0-2267-40ac-a1bc-f1c59d561a14" xmlns="http://www.w3.org/2000/svg" xmlns:xlink="http://www.w3.org/1999/xlink" viewBox="0 0 567 144.7">
<title>University of Liverpool logo - Brandlogos.net</title><defs><linearGradient id="uuid-5567827e-fc00-4ec1-b43b-28a18371cc0e" x1="21" y1="70.29" x2="46.5" y2="70.29" gradientTransform="translate(0 146.7) scale(1 -1)" gradientUnits="userSpaceOnUse"><stop offset="0" stop-color="#fff"/><stop offset=".13" stop-color="#e7e7f1"/><stop offset=".39" stop-color="#bcbbd8"/><stop offset=".74" stop-color="#8484b5"/><stop offset=".94" stop-color="#6768a3"/></linearGradient><linearGradient id="uuid-8f09eee6-f790-417d-9640-b13689fa63fc" x1="58.9" y1="71.45" x2="72.58" y2="71.45" gradientTransform="translate(0 146.7) scale(1 -1)" gradientUnits="userSpaceOnUse"><stop offset=".1" stop-color="#6768a3"/><stop offset=".32" stop-color="#8080b3"/><stop offset=".81" stop-color="#cfcee3"/><stop offset="1" stop-color="#fff"/></linearGradient><linearGradient id="uuid-cc10c5f0-242c-4893-877d-ce2e40e04202" x1="20.05" y1="72.28" x2="37.55" y2="72.28" gradientTransform="translate(0 146.7) scale(1 -1)" gradientUnits="userSpaceOnUse"><stop offset="0" stop-color="#fff"/><stop offset=".15" stop-color="#e7e7f1"/><stop offset=".45" stop-color="#bcbcd8"/><stop offset=".86" stop-color="#8484b5"/><stop offset=".94" stop-color="#7a7aaf"/></linearGradient><linearGradient id="uuid-dadeb0b0-c367-45fa-bdd6-580fcd64cd69" x1="53.7" y1="72.08" x2="73.55" y2="72.08" gradientTransform="translate(0 146.7) scale(1 -1)" gradientUnits="userSpaceOnUse"><stop offset=".1" stop-color="#7a7aaf"/><stop offset=".36" stop-color="#9594c0"/><stop offset=".94" stop-color="#eeeef5"/><stop offset="1" stop-color="#fff"/></linearGradient><linearGradient id="uuid-b9c5f455-3c60-4039-8d4e-f129081a3f5f" x1="19.64" y1="79.72" x2="47.14" y2="79.72" gradientTransform="translate(0 146.7) scale(1 -1)" gradientUnits="userSpaceOnUse"><stop offset=".73" stop-color="#fff"/><stop offset="1" stop-color="#8e8ebc"/></linearGradient><linearGradient id="uuid-2a73ddd5-252e-485b-89b3-05012358db35" x1="42.95" y1="79.81" x2="55.09" y2="79.81" xlink:href="#uuid-dadeb0b0-c367-45fa-bdd6-580fcd64cd69"/></defs><g id="uuid-41fcaf10-8976-4b71-9ed8-09501a7c2136"><path d="M94.1,2.9S76.3,0,47.8,0,1.6,2.9,1.6,2.9c0,0-9.6,70.8,18.3,113.2,9.5,14.4,27.9,28.5,27.9,28.6.1,0,18.5-14.2,27.9-28.6C103.8,73.7,94.1,2.9,94.1,2.9Z" style="fill:#1f2b7d;"/><path d="M7.8,19.3c.1.4.2.6.2.6.6-.9,1.8-1,2.6-.9-.6-.2-1.9-.3-2.8.3Z"/><path d="M10.7,24.4c.1.1.2.2.3.2-.1,0-.2-.1-.3-.2Z" style="fill:none;"/><path d="M10.8,22.1q.1,0,.2.1h.1v-.1c-.4-.1-.9-.3-1-.3h-.2l.9.3ZM9.7,25.5s-.1,0,0,0h-.1v.1c.1-.1.3-.1.4-.2-.2.1-.3.1-.3.1ZM21.3,40.7c.2.2.4.3.5.4l.1.1c.1.1.2.2.2.3l.2.2.1.1c.3.3.5.7.5,1.1v-1.2l-.7-.7s-.9-.3-.9-.3ZM31.3,30.9l1.1,4.4h-2.5c.2,0,.4,0,.6.1.9.1,1.7,0,2.5-.1l-.6-2.2s-1.1-2.2-1.1-2.2ZM17.9,17.5c-.1,0-.7-.2-1-.2-.3-.1-.7-.3-1.2-.3-.4,0-2.2.9-2.2.9.1,0,1.2-.4,1.5-.4h.4c0,.2.2.3.5.3s.5-.2.6-.3c.4.1.9.1,1.2.1.1,0,.2-.1.2-.1ZM20,25.4s.1,0,.1.1h.1s.1,0,.1.1c.1,0,.1.1.2.1h.1l.1.1h.1c.1,0,.2.1.2.1h.1c.3.2,1.1.6,2.1.6-.9-.2-1.6-.6-1.6-.6-1-.6-1.6-.8-1.9-.7q.2.2.3.2ZM11.2,24.8l-.2-.2c-.2.4-.4.6-.6.7h-.4c.2,0,.5,0,.8-.1.1.1.3-.1.4-.4,0,.1,0,0,0,0ZM12.2,22.5c.3-.6.5-1.3.5-2.3v-1.2s-.2-.5-.6-.3c0,0,.2.1.2.5v1c-.1.8-.3,1.6-.5,2.3l.4.4c.1.1.3.4.2.8-.2.4-.4,1-.6,1.1,0,0-.1.1-.1.2l.2.4c.1,0,.1-.4.3-.6.1-.2.4-.7.6-1.1.1-.4-.1-.7-.2-.8,0,0-.4-.4-.4-.4ZM36.6,29l2.4,2.4-.3.3-.1.1-.2.2-.1.1-.2.2-.1.1-.2.2-.1.1c-.1,0-.1.1-.2.1s-.1.1-.2.1l-.1.1c-.1,0-.1.1-.2.1l-.1.1c-.1,0-.1.1-.2.1l-.1.1c-.1,0-.1.1-.2.1,0,0-.1,0-.1.1-.1.1-.2.1-.2.2-.6.4-1.3.7-2,1l.1.2c2.2-.6,4-2,5.5-3.7l-1.7-1.7-1.4-.6ZM44.7,18.2c-.1.4-.2.9-.3,1.6v.1c0,.1,0,.2-.1.3v.4c0,.1,0,.2-.1.2v.1c0,.1-.1.2-.1.4v.1c0,.1-.1.2-.1.4,0,.1-.1.3-.1.4v.1l-.3.9-.6,1.5.6.1c1.5-3.8,2-7.1,2-7.1-.4.2-.7.4-.9.5ZM39.4,24.3l3.1,1.4-.3.6c-.6,1.4-1.4,2.9-2.4,4.2l.5.3c1.2-1.5,2.1-3.3,2.9-5l-3-1.3s-.8-.2-.8-.2ZM25.2,40.5h-.7c-1.4,3-.4,6.8-.4,6.8h.2c2,.5,3.8,1.4,4.1,1.6h.6s-2-1.2-4.3-1.6c0,.2-1.1-3.8.5-6.8ZM20.4,48.8h-.3c-.1,0-.2,0-.3.1-.1,0-.2.1-.3.1s-.2.1-.3.1-.2.1-.3.1-.2.1-.3.1c-.2.1-.4.2-.5.3-.1.2-.1.3-.1.5,0,0,1.7-1.2,3.2-1.3,2.4-.2,3.8,0,6.7.2-3.5-.3-5-.5-7.5-.2Z"/><path d="M16.4,17.5c-.1.1-.3.3-.6.3s-.5-.1-.5-.3h-.4c-.2,0-1.4.4-1.5.4,0,0,1.8-.9,2.2-.9.5,0,.9.2,1.2.3.3.1,1,.2,1,.2.1,0-.1.1-.3.1-.2.1-.7.1-1.1-.1ZM22.8,42.8c0-.3-.2-.7-.5-1.1l-.1-.1c-.1-.1-.1-.2-.2-.2-.1-.1-.2-.2-.2-.3l-.1-.1c-.1-.1-.3-.3-.5-.4l1.5.4v1.8h.1ZM44.8,17.7c-4.9,3.6-14.9,3.5-16.5,3.9s-1.1,1.5-1.1,1.5c-2.2,5.7-6.1,2.9-6.1,2.9-3-1.9-2.5.1-1.3,2.4-4.7-.6-.8-7.1.8-8.4,1.8-1.3,3.7-5.1,3.7-5.1-.6.6-2.3,1.8-6.9.9-2-.4-3.5.9-3.5.9-8.9-.8-6.6,3.1-6.6,3.1,1-1.5,3.7-.8,3.7-.8,0,.5.3.8.6,1-.1.6-.2,1.4-.5,2.2-.3-.1-1.1-.4-1.4-.4-.7.1-.6,1.1-1.4,1.4.1.2.4.4.8.5-.3.4-.3,1-.3,1.1,0,.3.2.4.2.5v.4c.2-.1.4-.2.6-.2.1,0,.6,0,.8-.1s.4-.3.6-.7c.1,0,.1.1.1.1.1.1.3.5.3.6.1,0,.1-.4.3-.6.1-.2.4-.7.6-1.1.1-.4-.1-.7-.2-.8l-.4-.4c.2-.7.4-1.4.5-2.3v-1c0-.4-.2-.5-.2-.5.3-.3.6.3.6.3v1.2c.5,0,.8-.2.8-.2,0,0,2.9-.3,3.3.4.4.7.3,2.6-2.3,7.2-2.8,5,.2,9.9,4.3,12,1.4,1,4.3,3.6,3.9,7,0,0-5.3,1.1-5.5,3.4,0,0,1.7-1.2,3.2-1.3,2.7-.2,4.2-.1,8.1.3,0,0-2.1-1.2-4.4-1.7,0,0-1-3.8.4-6.8h.2c1.7-.4,4.8,1.3,4.8,1.3l-.7-1.8c3.2.5,4.8,4.3,4.8,4.3-.1-3.2-2.2-6.4-4.7-9.1.4.1.7.1,1,.1.9.1,1.7,0,2.5-.1l-1.1-4.4,2.2,4.1c2.2-.6,4-2,5.5-3.7l-2.3-2.2,3,1.6c1.2-1.5,2.1-3.3,2.9-5l-3.1-1.4,3.4.5c1.5-3.7,2-7,2-7Z" style="fill:#fff;"/><path d="M20.6,20c-1.7,1.3-5.6,7.8-.8,8.4-3.7-1.2-.1-7.1,1.5-8.3,1.8-1.3,3.7-5.1,3.7-5.1-.2.2-.6.4-1,.6-.7,1.2-2.1,3.5-3.4,4.4ZM29.4,35.4c-.2,0-.4,0-.6-.1.1.1.2.3.4.4l.1.1c.1.1.2.3.3.4l.1.1c.1.1.2.3.3.4.1.1.2.3.3.4.1.1.2.3.3.4v.1c.1.1.2.3.3.4v.1c.1.1.2.3.3.4.1.1.2.3.3.4.1.1.2.3.3.4v.1c.1.1.2.3.2.4v.1c.1.1.1.3.2.4v.1c.1.1.1.3.2.4v.1c.1.1.1.3.2.4,0,0,0,.1.1.1,0,.1.1.3.1.4v.2c0,.1.1.2.1.3s0,.1.1.2c0,.1,0,.2.1.3v.1c.5.8.8,1.4.8,1.4.2-2.9-2.1-6.3-4.5-8.9h0ZM28.7,40.1l.6,1.6c.4.2.7.4.7.4l-.7-1.8c-.1-.1-.4-.2-.6-.2Z"/><path d="M22.1,40.9l.7.7v-.5l-.7-.2Z" style="fill:none;"/><path d="M52.5,19.3l.2.6c.6-.9,1.8-1,2.6-.9-.6-.2-1.9-.3-2.8.3Z"/><path d="M55.4,24.4c.1.1.2.2.3.2-.1,0-.2-.1-.3-.2Z" style="fill:none;"/><path d="M55.5,22.1q.1,0,.2.1h.1v-.1c-.4-.1-.9-.3-1-.3h-.2l.9.3ZM54.4,25.5s-.1,0,0,0h-.1v.1c.1-.1.3-.1.4-.2-.2.1-.3.1-.3.1ZM66,40.7c.2.2.4.3.5.4l.1.1c.1.1.2.2.2.3l.2.2.1.1c.3.3.5.7.5,1.1v-1.2l-.7-.7s-.9-.3-.9-.3ZM76,30.9l1.1,4.4h-2.5c.2,0,.4,0,.6.1.9.1,1.7,0,2.5-.1l-.6-2.2-1.1-2.2ZM62.6,17.5c-.1,0-.7-.2-1-.2-.3-.1-.7-.3-1.2-.3-.4,0-2.2.9-2.2.9.1,0,1.2-.4,1.5-.4h.4c0,.2.2.3.5.3s.5-.2.6-.3c.4.1.9.1,1.2.1.1,0,.2-.1.2-.1ZM64.7,25.4s.1,0,.1.1h.1s.1,0,.1.1c.1,0,.1.1.2.1h.1l.1.1h.1c.1,0,.2.1.2.1h.1c.3.2,1.1.6,2.1.6-.9-.2-1.6-.6-1.6-.6-1-.6-1.6-.8-1.9-.7q.2.2.3.2h0ZM55.9,24.8l-.2-.2c-.2.4-.4.6-.6.7h-.4c.2,0,.5,0,.8-.1.1.1.3-.1.4-.4,0,.1,0,0,0,0ZM56.9,22.5c.3-.6.5-1.3.5-2.3v-1.2s-.2-.5-.6-.3c0,0,.2.1.2.5v1c-.1.8-.3,1.6-.5,2.3l.4.4c.1.1.3.4.2.8-.2.4-.4,1-.6,1.1,0,0-.1.1-.1.2l.2.4c.1,0,.1-.4.3-.6.1-.2.4-.7.6-1.1.1-.4-.1-.7-.2-.8,0,0-.4-.4-.4-.4ZM81.3,29l2.4,2.4-.3.3-.1.1-.2.2-.1.1-.2.2-.1.1-.2.2-.1.1c-.1,0-.1.1-.2.1s-.1.1-.2.1l-.1.1c-.1,0-.1.1-.2.1l-.1.1c-.1,0-.1.1-.2.1l-.1.1c-.1,0-.1.1-.2.1,0,0-.1,0-.1.1-.1.1-.2.1-.2.2-.6.4-1.3.7-2,1l.1.2c2.2-.6,4-2,5.5-3.7l-1.7-1.7-1.4-.6h0ZM89.4,18.2c-.1.4-.2.9-.3,1.6v.1c0,.1,0,.2-.1.3v.4c0,.1,0,.2-.1.2v.1c0,.1-.1.2-.1.4v.1c0,.1-.1.2-.1.4,0,.1-.1.3-.1.4v.1l-.3.9-.6,1.5.6.1c1.5-3.8,2-7.1,2-7.1-.4.2-.7.4-.9.5ZM84.1,24.3l3.1,1.4-.3.6c-.6,1.4-1.4,2.9-2.4,4.2l.5.3c1.2-1.5,2.1-3.3,2.9-5l-3-1.3s-.8-.2-.8-.2ZM69.9,40.5h-.7c-1.4,3-.4,6.8-.4,6.8h.2c2,.5,3.8,1.4,4.1,1.6h.6s-2-1.2-4.3-1.6c0,.2-1.1-3.8.5-6.8ZM65.1,48.8h-.3c-.1,0-.2,0-.3.1-.1,0-.2.1-.3.1s-.2.1-.3.1-.2.1-.3.1-.2.1-.3.1c-.2.1-.4.2-.5.3-.1.2-.1.3-.1.5,0,0,1.7-1.2,3.2-1.3,2.4-.2,3.8,0,6.7.2-3.5-.3-5-.5-7.5-.2Z"/><path d="M61.1,17.5c-.1.1-.3.3-.6.3s-.5-.1-.5-.3h-.4c-.2,0-1.4.4-1.5.4,0,0,1.8-.9,2.2-.9.5,0,.9.2,1.2.3.3.1,1,.2,1,.2.1,0-.1.1-.3.1-.2.1-.7.1-1.1-.1ZM67.5,42.8c0-.3-.2-.7-.5-1.1l-.1-.1c-.1-.1-.1-.2-.2-.2-.1-.1-.2-.2-.2-.3l-.1-.1c-.1-.1-.3-.3-.5-.4l1.5.4v1.8h.1ZM89.5,17.7c-4.9,3.6-14.9,3.5-16.5,3.9s-1.1,1.5-1.1,1.5c-2.2,5.8-6.2,2.9-6.2,2.9-3-1.9-2.5.1-1.3,2.4-4.7-.6-.8-7.1.8-8.4,1.9-1.3,3.8-5,3.8-5-.6.6-2.3,1.8-6.9.9-2-.4-3.5.9-3.5.9-8.9-.8-6.6,3.1-6.6,3.1.9-1.5,3.6-.8,3.6-.8,0,.5.3.8.6,1-.1.6-.2,1.4-.5,2.2-.3-.1-1.1-.4-1.4-.4-.7.1-.6,1.1-1.4,1.4.1.2.4.4.8.5-.3.4-.3,1-.3,1.1,0,.3.2.4.2.5v.4c.2-.1.4-.2.6-.2.1,0,.6,0,.8-.1s.4-.3.6-.7c.1,0,.1.1.1.1.1.1.3.5.3.6.1,0,.1-.4.3-.6.1-.2.4-.7.6-1.1.1-.4-.1-.7-.2-.8l-.4-.4c.2-.7.4-1.4.5-2.3v-1c0-.4-.2-.5-.2-.5.3-.3.6.3.6.3v1.2c.5,0,.8-.2.8-.2,0,0,2.9-.3,3.3.4.4.7.3,2.6-2.3,7.2-2.8,5,.2,9.9,4.3,12,1.4,1,4.3,3.6,3.9,7,0,0-5.3,1.1-5.5,3.4,0,0,1.7-1.2,3.2-1.3,2.7-.2,4.2-.1,8.1.3,0,0-2.1-1.2-4.4-1.7,0,0-1-3.8.4-6.8h.2c1.7-.4,4.8,1.3,4.8,1.3l-.7-1.8c3.2.5,4.8,4.3,4.8,4.3-.1-3.2-2.2-6.4-4.7-9.1.4.1.7.1,1,.1.9.1,1.7,0,2.5-.1l-.9-4.4,2.2,4.1c2.2-.6,4-2,5.5-3.7l-2.4-2.3,3,1.6c1.2-1.5,2.1-3.3,2.9-5l-3.1-1.4,3.4.5c1.5-3.7,2-7,2-7Z" style="fill:#fff;"/><path d="M65.3,20c-1.7,1.3-5.6,7.8-.8,8.4-3.7-1.2-.1-7.1,1.5-8.3,1.8-1.3,3.7-5.1,3.7-5.1-.2.2-.6.4-1,.6-.7,1.2-2.1,3.5-3.4,4.4ZM74.1,35.4c-.2,0-.4,0-.6-.1.1.1.2.3.4.4l.1.1c.1.1.2.3.3.4l.1.1c.1.1.2.3.3.4.1.1.2.3.3.4.1.1.2.3.3.4v.1c.1.1.2.3.3.4v.1c.1.1.2.3.3.4.1.1.2.3.3.4.1.1.2.3.3.4v.1c.1.1.2.3.2.4v.1c.1.1.1.3.2.4v.1c.1.1.1.3.2.4v.1c.1.1.1.3.2.4,0,0,0,.1.1.1,0,.1.1.3.1.4v.2c0,.1.1.2.1.3s0,.1.1.2c0,.1,0,.2.1.3v.1c.5.8.8,1.4.8,1.4.2-2.9-2.1-6.3-4.5-8.9ZM73.4,40.1l.6,1.6c.4.2.7.4.7.4l-.7-1.8c-.1-.1-.4-.2-.6-.2Z"/><path d="M66.8,40.9l.7.7v-.5l-.7-.2Z" style="fill:none;"/><path d="M26.6,92c.1.4.3.7.3.7.7-1.1,2.2-1.3,3.3-1.2-.8-.1-2.5-.3-3.6.5Z"/><path d="M30.2,98.5c.1.1.2.2.4.2-.1,0-.3-.1-.4-.2Z" style="fill:none;"/><path d="M30.3,95.5q.1,0,0,0c.1,0,.2.1.2.1h.1v-.1c-.5-.1-1.1-.4-1.3-.3q-.1,0-.2.1c.4,0,.9.1,1.2.2ZM29,99.8q-.1,0,0,0h-.3v.2c.2-.1.3-.2.5-.2h-.2ZM43.5,118.9l.6.6.1.1.3.3c.1.1.2.2.2.3,0,0,0,.1.1.1.3.4.6.9.6,1.3v-1.6c-.3-.4-.7-.7-.9-.9,0,0-1-.2-1-.2ZM56,106.6l1.4,5.5c-.1,0-.2,0-.4.1h-2.7c.2,0,.5.1.7.1,1.1.1,2.2,0,3.2-.1l-.7-2.7-1.5-2.9ZM39.2,89.8c-.1,0-.9-.2-1.3-.3-.4-.1-.9-.3-1.5-.3-.5,0-2.7,1.2-2.7,1.2.1,0,1.5-.5,1.8-.5h.4c0,.3.3.4.7.4s.7-.3.7-.4c.5.2,1.2.2,1.5.1s.5-.2.4-.2ZM41.9,99.7q.1,0,.2.1h.1s.1,0,.1.1c.1,0,.1.1.2.1,0,0,.1,0,.1.1.1,0,.1.1.2.1,0,0,.1,0,.1.1.1.1.2.1.3.2h.2c.3.2,1.4.8,2.7.8-.72-.12-1.4-.39-2-.8-1.3-.8-2-1-2.4-.9,0,0,.1.1.2.1h0ZM30.8,98.9l-.2-.2c-.2.5-.5.8-.7.9,0,0-.1,0-.1.1h-.3c.2,0,.7,0,1-.2,0,0,.2-.2.3-.6q.1.1,0,0c.1.1,0,0,0,0ZM32.1,96c.3-.7.6-1.7.6-2.9v-1.4s-.3-.7-.7-.3c0,0,.2.1.3.6v1.3c-.1,1-.3,2-.6,2.8.1.2.4.4.5.5s.4.5.2,1-.5,1.2-.7,1.4c0,.1-.1.1-.1.2.1.2.2.4.3.5.1,0,.1-.5.3-.7s.5-.9.7-1.4-.1-.9-.2-1c-.3-.3-.5-.4-.6-.6ZM62.8,104.3l3,3c-.1.1-.2.3-.3.4l-.1.1-.3.3-.1.1-.2.2c-.1,0-.1.1-.2.1l-.2.2-.2.2-.2.2-.2.2q-.1.1-.2.1l-.2.2c-.1,0-.1.1-.2.1-.1.1-.2.1-.2.2l-.1.1c-.1.1-.2.1-.3.2,0,0-.1,0-.1.1-.1.1-.2.1-.3.2h-.1c-.8.5-1.7.9-2.6,1.2l.2.3c2.8-.8,5.1-2.5,6.9-4.6l-2.2-2.2-1.6-.9h0ZM72.9,90.7c-.1.5-.2,1.1-.4,2v.1c0,.1-.1.3-.1.4s0,.2-.1.2v.2c0,.1-.1.2-.1.3v.1c0,.1-.1.3-.1.5v.1c0,.2-.1.3-.1.5v.1c-.1.2-.1.4-.2.5v.1c-.1.4-.2.8-.4,1.2-.2.6-.4,1.3-.7,1.9l.8.1c1.9-4.7,2.5-8.9,2.5-8.9-.5.2-.8.4-1.1.6h0ZM66.2,98.3l3.9,1.7c-.1.3-.2.5-.3.8-.8,1.8-1.8,3.6-3,5.2l.6.3c1.5-1.9,2.7-4.1,3.6-6.3l-3.7-1.7h-1.1ZM48.4,118.7h-.9c-1.8,3.7-.5,8.5-.5,8.5.1,0,.2,0,.3.1,2.5.6,4.8,1.8,5.2,2h.7s-2.5-1.5-5.4-2.1c0,.2-1.4-4.8.6-8.5ZM42.4,129c-.1,0-.3,0-.4.1-.1,0-.2,0-.4.1-.1,0-.2.1-.4.1-.1,0-.2.1-.4.1-.1,0-.2.1-.3.1s-.2.1-.3.2c-.2.1-.5.2-.7.3-.1.2-.1.4-.2.7,0,0,2.2-1.5,4-1.6,3-.3,4.8,0,8.4.2-4.3-.4-6.1-.6-9.3-.3h0Z"/><path d="M37.4,89.8c-.1.1-.3.4-.7.4s-.7-.1-.7-.4h-.4c-.3.1-1.7.6-1.8.5,0,0,2.2-1.2,2.7-1.2.6,0,1.1.2,1.5.3.4.1,1.2.3,1.3.3s-.1.1-.3.2c-.5.1-1.2.1-1.6-.1ZM45.4,121.6c0-.4-.3-.9-.6-1.3,0,0,0-.1-.1-.1-.1-.1-.2-.2-.2-.3l-.3-.3s0-.1-.1-.1l-.6-.6,1.9.5s0,2.2,0,2.2ZM73,90c-6.1,4.6-18.7,4.3-20.7,4.9-2,.5-1.4,1.9-1.4,1.9-2.8,7.2-7.7,3.7-7.7,3.7-3.8-2.3-3.1.1-1.6,3.1-5.9-.7-1-8.9,1.1-10.5,2.2-1.7,4.7-6.4,4.7-6.4-.7.8-2.8,2.3-8.6,1.1-2.6-.5-4.4,1.1-4.4,1.1-11.2-1-8.3,3.9-8.3,3.9,1.2-1.9,4.5-1,4.5-1,0,.7.4,1,.8,1.2-.1.8-.3,1.8-.6,2.7-.4-.1-1.4-.5-1.7-.4-.9.1-.8,1.4-1.7,1.8.1.2.5.5,1,.6-.4.5-.4,1.3-.4,1.4,0,.4.3.5.3.6v.5c.3-.1.5-.3.7-.3s.7,0,1-.2c.2-.1.5-.4.7-.9.1,0,.1.1.2.1.2.2.4.7.4.7.1,0,.1-.5.3-.7.2-.2.5-.9.7-1.4s-.1-.9-.2-1c-.1-.1-.4-.3-.5-.5.3-.8.5-1.8.6-2.8,0,0,.1-.8,0-1.3,0-.5-.3-.6-.3-.6.4-.3.7.3.7.3v1.5c.6-.1,1-.2,1-.2,0,0,3.6-.4,4.1.5.6.9.3,3.2-2.9,9-3.5,6.3.2,12.4,5.4,15.1,1.7,1.3,5.3,4.5,4.9,8.8,0,0-6.6,1.3-6.9,4.3,0,0,2.2-1.5,4-1.6,3.4-.3,5.2-.1,10.1.4,0,0-2.7-1.5-5.5-2.1,0,0-1.3-4.8.5-8.5h.2c2.2-.5,6,1.7,6,1.7l-.9-2.3c4,.6,6,5.4,6,5.4-.1-4-2.8-8-5.9-11.4.4.1.9.1,1.3.2,1.1.1,2.2,0,3.2-.1l-1.4-5.5,2.8,5.2c2.8-.8,5.1-2.5,6.9-4.6l-3-3,3.7,2c1.5-1.9,2.7-4.1,3.6-6.3l-3.9-1.7,4.3.7c2.2-4.9,2.8-9.1,2.8-9.1Z" style="fill:#fff;"/><path d="M42.7,92.9c-2.1,1.6-7,9.8-1.1,10.5-4.7-1.5-.1-8.9,1.9-10.4,2.2-1.7,4.7-6.4,4.7-6.4-.2.2-.8.5-1.3.8-.9,1.5-2.6,4.3-4.2,5.5ZM53.7,112.2c-.2,0-.5-.1-.7-.1l.5.5s0,.1.1.1c.1.2.3.3.4.5,0,0,0,.1.1.1.1.2.3.3.4.5v.1c.1.2.3.4.4.5.1.2.3.4.4.6l.1.1c.1.2.3.4.4.5,0,0,0,.1.1.1.1.2.3.4.4.6.1.2.2.4.4.6l.3.6s0,.1.1.1c.1.2.2.4.3.5,0,0,0,.1.1.1.1.2.2.4.3.5v.1c.1.2.1.3.2.5,0,0,0,.1.1.1.1.2.1.3.2.5q0,.1.1.2c.1.2.1.3.2.5q0,.1.1.2c0,.1.1.3.1.4s0,.2.1.3c0,.1.1.2.1.4v.2c.7,1,1,1.8,1,1.8-.5-4.1-3.3-8.4-6.3-11.7h0ZM52.8,118.2l.8,2c.6.3.9.5.9.5l-.8-2.3c-.3-.1-.6-.2-.9-.2Z"/><path d="M44.6,119.2l.8.8v-.6s-.8-.2-.8-.2Z" style="fill:none;"/><path d="M34.8,73.2c-.1,0-.2,0-.4-.1-.2,0-.4,0-.5-.1-5.1-.5-9.7,1.2-12.1,2.3l-.8,1.9s14.5-9.5,25.5,2.7c0,0-4-5.5-11.7-6.7Z" style="fill:url(#uuid-5567827e-fc00-4ec1-b43b-28a18371cc0e);"/><path d="M72,75.6c-2.5-1.1-7.5-2.9-13.1-2.1,7.5-.4,13.7,3.7,13.7,3.7l-.6-1.6Z" style="fill:url(#uuid-8f09eee6-f790-417d-9640-b13689fa63fc);"/><path d="M20.8,74.4l-.8,1.8s8.6-5,17.5-2.5c-7-2.3-14-.3-16.7.7Z" style="fill:url(#uuid-cc10c5f0-242c-4893-877d-ce2e40e04202);"/><path d="M53.7,74.8c9.9-4.1,19.9,1.6,19.9,1.6l-.7-1.6c-2.7-1.1-10.9-3.8-19.2,0Z" style="fill:url(#uuid-dadeb0b0-c367-45fa-bdd6-580fcd64cd69);"/><path d="M46.5,79.8c-9.2-10.1-20.8-5.2-24.4-3.2l-.4.9.7.4s12.2-8.7,22.7,2.1c1.6,1.6,1.8,1.2,3,0,11.9-11.3,22.3-2.2,22.6-2.3.4-.1,1-.4,1-.4l-.3-.8c-3.6-2-15.2-7.1-24.6,2.9,0,0-.3.4-.3.4Z" style="fill:#a17205;"/><path d="M19.6,75.2s15.4-7.7,26.9,4.8l.6-22.6s-10.9-8-20.5.4c0,0-7,17.4-7,17.4Z" style="fill:url(#uuid-b9c5f455-3c60-4039-8d4e-f129081a3f5f);"/><path d="M73.9,75.2s-15.5-7.8-27.3,4.8l.6-22.6s11.8-8.4,20.1.4c0,0,6.6,17.4,6.6,17.4Z" style="fill:url(#uuid-2a73ddd5-252e-485b-89b3-05012358db35);"/><path d="M29.4,62.6l.3-.1c.4-.1.6-.3.8-1h.3c-.1.4-.2.8-.2,1.2-.1.4-.1.7-.2,1.1h-.3c0-.5,0-.9-.5-.8h-.3l-.5,1.5c-.2.6,0,.6.8.5l-.1.3c-.5.1-1.1.2-1.7.3-.5.1-.8.2-1.6.3l.1-.3c.8-.2.9-.4,1.1-1.1l.9-2.7c.2-.8.2-1.1-.5-1l.1-.3c.5,0,1.3-.1,2-.3.8-.2,1.6-.4,2.5-.6l-.1,1.4-.4.1c0-1-.3-.8-1.3-.6-.6.1-.7.2-.9.8l-.3,1.3h0ZM33.7,61.1c.1-.7.2-.9-.5-.9l.1-.4c.4-.1.7-.1,1.2-.1.5-.1.8-.1,1.3-.2v.4c-.7.1-.8.3-.9,1l-.7,2.7c-.2.9-.2,1.1.5,1.1l-.1.3h-1.4c-.4,0-1,.1-1.5.1l.1-.3c.7-.1.9-.4,1.1-1.2,0,0,.8-2.5.8-2.5ZM36.9,63.7c-.1.2-.2.3-.3.7-.2.4.3.5.5.6l-.1.3c-.3,0-.6-.1-.9-.1h-.8l.1-.3c.6,0,.9-.7,1.2-1.3.8-1.7,1.8-3.9,1.8-3.9l.6.1s.7,3.6.8,4.4c.1.7.1.8.2,1.1,0,.2.3.4.5.5l-.1.3c-.4-.1-.7-.2-1.2-.3-.4-.1-.8-.2-1.3-.2l.1-.4c.3,0,.7,0,.7-.4,0-.1-.1-.6-.1-.7l-.1-.4s-.4-.1-.8-.1c-.4-.1-.8-.1-.8-.1,0,0,0,.2,0,.2ZM37.9,63c.4,0,.7.1.7.1l-.4-2.1-.9,1.9s.2,0,.6.1ZM44.5,63.4l-.3-.1c0-.8,0-1.5-.4-1.7s-.5,0-.6.7l-.3,3c-.1.8,0,1.1.6,1.5v.4c-.5-.2-.9-.4-1.2-.6-.4-.2-.8-.3-1.3-.5l.1-.3c.7.2.7,0,.8-.8l.3-3c.1-.6.2-1-.3-1.1-.6-.2-.6.4-.8,1.1l-.3-.1.2-1.7s1.1.2,2,.6c1,.4,1.7.9,1.7.9l-.2,1.7ZM51.4,67.1c.6-.4.6-.7.6-1.4l-.2-3c0-.8,0-1.2-.7-.9v-.4c.5-.2.7-.3,1.1-.5.5-.2.9-.3,1.4-.4v.4c-.7.2-.6.6-.6,1.4l.1,2.5c0,.9.1,1.4,1,1.2,1.1-.3,1.5-.8,1.6-1.9h.3v1.9c-1.4.3-3,.9-3.4,1-.4.2-.9.4-1.3.6,0,0,.1-.5.1-.5ZM55.6,60.3c.6-.1,1-.1,1.4-.1h1.4v.3c-.7,0-.7.5-.6,1.2l.2,1.4c.1,1.2.5,1.9,1.6,1.8,1.1,0,1.1-.6,1-1.7l-.3-1.2c0-.3-.1-.7-.3-1-.1-.3-.3-.4-.6-.4v-.3c.3,0,.6.1.9.1s.4,0,.8.1v.3c-.2,0-.4.1-.5.4-.1.3,0,.7,0,1l.1.8c.2,1.7.4,2.5-1.6,2.6-1.2.1-2.5-.4-2.7-2.3l-.2-1.5c-.1-.8-.1-1.1-.8-1.1,0,0,.2-.4.2-.4ZM66.2,65.7c.3.4.5.7.9.7l.1.3c-.5-.1-.8-.1-1.3-.2-.4-.1-.8-.1-1.3-.2v-.3h.4c.1,0,.1-.1.1-.2,0-.2-.3-.6-.4-.7l-.7-1.1-.4.6c-.1.2-.3.6-.3.8,0,.3.3.4.5.5v.3c-.4-.1-.6-.1-1-.2-.3,0-.6-.1-.8-.1v-.3c.4.1.6-.3.8-.6l.9-1.3-1-1.5c-.1-.2-.2-.4-.4-.6-.2-.3-.3-.3-.5-.4v-.3c.3.1.7.2,1.1.3.4.1.8.1,1.1.2v.4c-.2,0-.5-.1-.4.2,0,.2.1.3.2.5l.5.7.3-.5c.1-.2.2-.3.3-.4.1-.2-.2-.4-.5-.4v-.3c.3,0,.5.1.8.1h.7l.1.3c-.4,0-.5.2-.8.6l-.7,1s1.7,2.1,1.7,2.1Z"/><path d="M163.6,114.1c-1,0-3.7,8.1-22,8.1-6.6,0-6-1.9-6-6.6v-38.3c0-6.9,5.8-4.9,5.8-6.7,0-.9-.5-1.1-1.5-1.1-1.2,0-3.1.3-7.6.3-3.9,0-6.3-.3-8-.3-1,0-1.6.2-1.6,1,0,1.6,6.6,1,6.6,5.1v40.1c0,3.7-.2,5.9-2.2,6.9-2.5,1.3-3.3,1.1-3.5,2.1,0,.6.5.8,1.2.8,3.2,0,6.5-.2,9.6-.3,6-.2,12,.3,18,.3,3.5,0,5.2.2,7.8-2.7,1.9-2.1,4-4.8,4-7.7,0-.2-.1-1-.6-1h0ZM179.5,118.7v-42.5c0-5.9,5.7-4.1,5.7-6,0-.6-.2-.8-1.5-.8-2.5,0-4.9.3-7.4.3-2.9,0-5.8-.3-8.7-.3-.6,0-.8.2-.8.9,0,1.7,6.3.2,6.4,5.9v40.5c0,7.8-6.2,5.2-6.2,7.5,0,.8.2,1.2,1.7,1.2,1.1,0,2.8-.3,7.6-.3,3.4,0,6.8.3,8.6.3,1.3,0,1.6-.2,1.6-.8,0-2.3-7-.5-7-5.9h0ZM242.7,69.4c-1.1,0-2.3.3-6.1.3-1.7,0-3.5-.3-5.2-.3-.8,0-1.2.2-1.2,1,0,1.8,5.1.3,5.1,4,.3,1.7-.6,4.2-1.1,5.4l-13.8,33.9c-.4.9-.6,2.2-1.4,2.2-.9,0-1.4-1.8-3.2-6l-13.8-32.6c-.3-.7-.7-2-.7-3.1,0-2.8,3.3-2.9,3.2-4,0-.5-.6-.8-1.1-.8-1.1,0-4.1.3-6.2.3-2.4,0-4.8-.3-7.3-.3-.7,0-1.1.4-1.1,1.1,0,1.7,4.1.2,6.1,5l19.5,46.2c.7,1.7,1.7,5,2.9,5s1.7-2.6,2.6-4.6l19.7-46.6c2.2-5.3,4.4-3.3,4.4-5.1.1-.6-.4-1-1.3-1h0ZM288.6,114.1c-1,0-3.7,8.1-22,8.1-6.6,0-6-1.9-6-6.6v-14.6c0-1.2-.2-2.5,1.4-2.5h11.7c6.6,0,4,7,6.4,7,.6,0,.9-.3.9-1,0-2.1-.2-4.2-.2-6.2,0-2.5.2-5.2.2-8,0-.6-.2-1.5-.9-1.5-1.9,0,.2,6.3-8,6.3h-8.5c-3.2,0-3,0-3-2.7v-14.7c0-5.3-.2-5,7.4-5,3.2,0,11.4-.5,13.4,2.2,1.3,1.8,0,5.6,1.9,5.6.5,0,1.6-.6,1.6-9.4,0-.9-.2-1.7-.8-1.7-2.5,0-9.7.3-11.3.3-3.3,0-7.4-.3-22.4-.3-2.3,0-2.8.3-2.8.9,0,.9,1.7,1.1,2.4,1.3,4.3.6,4.3,4.4,4.3,8v36.1c0,3.7-.2,5.9-2.2,6.9-2.5,1.3-3.3,1.1-3.5,2.1,0,.6.5.8,1.2.8,3.2,0,6.5-.2,9.6-.3,6-.2,12,.3,18,.3,3.5,0,5.2.2,7.8-2.7,1.9-2.1,4-4.8,4-7.7,0-.2-.1-1-.6-1ZM420.2,68.7c-16.2,0-29,11.9-29,28.4s10.5,28.9,27.7,28.9,29.9-11.5,29.9-29.3c-.1-16.3-12.5-28-28.6-28ZM422.2,123.6c-15.7,0-25.2-14.2-25.2-28.8,0-12.5,7.6-23.5,20.9-23.5,15.4,0,25.1,14,25.1,28.4s-9.3,23.9-20.8,23.9ZM483.7,68.7c-16.2,0-29,11.9-29,28.4s10.5,28.9,27.7,28.9,29.9-11.5,29.9-29.3c-.1-16.3-12.5-28-28.6-28h0ZM485.7,123.6c-15.7,0-25.2-14.2-25.2-28.8,0-12.5,7.6-23.5,20.9-23.5,15.4,0,25.2,14,25.2,28.4-.1,14.7-9.4,23.9-20.9,23.9ZM556,114.1c-1,0-3.7,8.1-22,8.1-6.6,0-6-1.9-6-6.6v-38.3c0-6.9,5.8-4.9,5.8-6.7,0-.9-.5-1.1-1.5-1.1-1.2,0-3.1.3-7.6.3-3.9,0-6.3-.3-8-.3-1,0-1.6.2-1.6,1,0,1.6,6.6,1,6.6,5.1v40.1c0,3.7-.2,5.9-2.2,6.9-2.5,1.3-3.3,1.1-3.5,2.1,0,.6.5.8,1.2.8,3.2,0,6.5-.2,9.7-.3,6-.2,12,.3,18,.3,3.5,0,5.2.2,7.7-2.7,1.9-2.1,4-4.8,4-7.7,0-.2,0-1-.6-1h0Z" style="fill:#1f2b7d;"/><path d="M104.9,56.7h462.1v1.2H104.9v-1.2ZM203.7,17.5h3.4v27.7h-3.4v-27.7ZM280.6,42.2h-14.7v-9.6h14.4v-3.1h-14.4v-8.9h14.7v-3.1h-18.1v27.7h18.1v-3ZM237,45.2l11.1-27.7h-3.9l-9.4,24-9.3-24h-4l11.2,27.7h4.3ZM167,23.1l16.1,22.1h3.3v-27.7h-3.4v21.7l-16-21.7h-3.5v27.7h3.5v-22.1ZM134.9,45.7c7.5,0,11.3-4.4,11.3-11.3v-16.9h-3.5v16.9c0,5.1-2.7,8.3-7.9,8.3s-7.8-3.2-7.8-8.3v-16.9h-3.5v17c.1,6.8,3.9,11.2,11.4,11.2ZM528,32.6h14.4v-3.1h-14.4v-8.9h14.7v-3.1h-18.1v27.7h3.4v-12.6ZM434.7,45.2h3.4v-11.7l10.9-16h-4l-8.6,12.9-8.6-12.9h-4.1l11,16v11.7ZM397.1,45.2h3.5v-24.6h8.8v-3.1h-21.1v3.1h8.8v24.6ZM301.3,34.2h5.6l7,11h4.1l-7.5-11.3c3.8-.3,7.2-3.1,7.2-8.1s-3.7-8.4-8.7-8.4h-11.1v27.7h3.4v-10.9ZM301.3,20.6h7.3c3.3,0,5.6,2.1,5.6,5.3s-2.3,5.3-5.6,5.3h-7.3v-10.6ZM494.6,45.7c8.2,0,13.8-6.2,13.8-14.3s-5.6-14.3-13.8-14.3-13.8,6.2-13.8,14.3c.1,8.2,5.6,14.3,13.8,14.3ZM494.6,20.1c6.2,0,10.2,4.8,10.2,11.3s-4,11.3-10.2,11.3-10.2-4.8-10.2-11.3,4-11.3,10.2-11.3ZM368.7,17.5h3.4v27.7h-3.4v-27.7ZM343,42.7c-3.9,0-6.9-1.9-8.7-4l-2.1,2.7c2.3,2.6,5.9,4.4,10.6,4.4,7.5,0,10.2-4.2,10.2-8.1,0-10.3-16.4-6.8-16.4-13,0-2.6,2.4-4.4,5.7-4.4,3,0,5.9,1,8,3.3l2.1-2.5c-2.3-2.5-5.6-3.9-9.8-3.9-5.5,0-9.6,3.2-9.6,7.7,0,9.9,16.4,5.9,16.4,13,.1,2.1-1.5,4.8-6.4,4.8h0Z" style="fill:#a17205;"/><path d="M359.4,74.6c0-2.4,1.7-2.4,4.3-2.4,9.1,0,16.5,5.1,16.5,14.6,0,7.1-4.7,11-12.8,11-2.8,0-4.5-.5-5.1-.5-.4,0-.8.2-.8.7,0,1.4,4.6,1.8,5.4,1.8,16.8,0,19.2-12,19.2-15.2,0-11.8-11.1-15.3-21.2-15.3-3.8,0-5.1.3-9,.3-4.6,0-7.4-.3-8.1-.3-.6,0-1,.6-1,1.2,0,2.8,6.5-2,6.5,7.5v38c0,8.8-6.2,6.3-6.2,8.5,0,.7.8.9,1.3.9,2.3,0,4.9-.3,8.6-.3,4.7,0,5.9.3,8.5.3,2,0,2.3-.4,2.3-.9,0-2.7-8.3,1.4-8.3-10v-39.9h-.1ZM321.4,96.8c5.5-2.2,10-7.5,10-13.7,0-15.3-17.5-13.7-18.7-13.7-4.1,0-8.6.3-13.2.3-4,0-3.6-.3-5.1-.3-.9,0-1.6.5-1.6.9,0,2.7,6.8-.6,6.8,7v40.3c0,6-5.8,4.9-5.8,6.9,0,.5.3.9.8.9,3,0,6-.3,9-.3,6.6,0,8.4.3,9.1.3.6,0,1.3.2,1.3-.6,0-2.7-8.2-.2-8.2-7v-16.7c0-.8-.5-2.2,2.1-2.2,8.9,0,7.7-.2,10.5,4.2l8.8,13.8c3,4.5,6.1,8.5,11.9,8.5.7,0,5.1,0,5.1-.9,0-1.9-3.9,1-9.6-7.7l-13.2-20h0ZM305.8,75c0-3.1,1.7-2.9,4.5-2.9,7.7,0,15.1,3.2,15.1,12.9s-7.6,11.2-11,11.2c-3.7,0-8.6.4-8.6-1.1v-20.1Z" style="fill:#1f2b7d;"/></g></svg>